<svg id="Layer_1" data-name="Layer 1" xmlns="http://www.w3.org/2000/svg" viewBox="0 0 215.22 216.15"><defs><style>.cls-1{fill:#EB0008;}.cls-2{fill:#fff;}</style></defs><rect class="cls-1" width="215.22" height="216.15"/><circle class="cls-1" cx="108.08" cy="108.08" r="108.08"/><path class="cls-2" d="M204.85,75.54,180.37,95l10.88-26.66c-.2.28-9.8,22.9-28.62,37.86l.42-20.2a1.23,1.23,0,0,0-1.14-1.14H149.16A1.23,1.23,0,0,0,148,86l.48,24.54v4.21c-9.28,3.49-23,2.53-29.1.22v-4.43L119.88,86a1.24,1.24,0,0,0-1.15-1.14H106A1.22,1.22,0,0,0,104.85,86l.66,32.15-.66,32.14a1.22,1.22,0,0,0,1.13,1.14h12.75a1.24,1.24,0,0,0,1.15-1.14l-.4-23.87a63.79,63.79,0,0,0,15.5,1.91,47.52,47.52,0,0,0,13.41-1.92L148,150.24a1.23,1.23,0,0,0,1.14,1.14h12.75a1.23,1.23,0,0,0,1.14-1.14l-.64-30.73C190.18,102.09,203.93,76.93,204.85,75.54Z"/><path class="cls-2" d="M98.5,117.51H67.88a1.24,1.24,0,0,0-1.15,1.14v8.18A1.24,1.24,0,0,0,67.88,128H84.14c-.38,10.27-6.37,16.08-15.88,16.08-11.8,0-18.35-9.13-18.35-23.59a38.28,38.28,0,0,1,1.46-11,52.59,52.59,0,0,0,22.51,5.1c5.49,0,10.57-.94,14.29-2.94,4.38-2.35,6.79-6.06,6.79-10.45A12.46,12.46,0,0,0,91,92c-5.81-5.59-16.46-6.5-23.41-6.43v0c-8.26,0-15.33,2.42-20.76,6.78A20.78,20.78,0,0,1,41.67,78c0-4.36.69-6.13,1.78-6.22,1.42-.12,2.24,2.28,3.19,4.08C48.3,79,51,82.56,55.51,82c5-.64,5.3-5.58,5.54-10,.09-1.69-.26-7.8.79-7.89s1.42,6,1.71,7.67c.78,4.31,1.76,9.66,7.22,9.17,3.8-.35,5.07-3.38,7.18-8.4.82-2,2.76-9.17,4.26-8.94.9.13.81,3,.48,6.11a5.38,5.38,0,1,0,10.72.82C93.8,63,92.76,53.08,85,51.07c-6-1.54-10.09,3-13.2,8.71-1.91-5.19-5.18-9.63-11.15-8.94-6.55.76-8.89,6.84-9.84,12.92a10.48,10.48,0,0,0-10-2.64c-5,1.28-8.58,6.13-9.72,12.95-1.22,7.32.64,17.75,8.66,26.57A39.16,39.16,0,0,0,35,120.27C35,140.91,48.38,155,67.79,155c20.44,0,31.95-11.89,31.85-36.33A1.23,1.23,0,0,0,98.5,117.51ZM83.42,99.88a1.57,1.57,0,0,1,.62,1.31c-.09.18-.9,1-3.26,1.64-5.93,1.63-16,.79-23.69-2.74A16,16,0,0,1,67.65,96.5C76.52,96.38,81.68,98.2,83.42,99.88Z"/></svg>