<svg id="SEAMLESS_HUNGARIAN_FOLK_ART_PATTERN_-_KALOCSAI_EMBROIDERY_STYLE" data-name="SEAMLESS HUNGARIAN FOLK ART PATTERN - KALOCSAI EMBROIDERY STYLE" xmlns="http://www.w3.org/2000/svg" viewBox="0 0 299.24 324.77"><defs><style>.cls-1{fill:#b62025;}</style></defs><g id="flower"><path class="cls-1" d="M66.93,54.58a60,60,0,1,1-52,30,59.81,59.81,0,0,1,52-30m0-6.82a66.9,66.9,0,1,0,33.37,9,67.08,67.08,0,0,0-33.37-9Z"/><path class="cls-1" d="M96.89,62.63a60,60,0,1,0,22,82A59.81,59.81,0,0,0,96.89,62.63Z"/><path class="cls-1" d="M149.62,6.82a60,60,0,1,1-60,60,60,60,0,0,1,60-60m0-6.82a66.85,66.85,0,1,0,66.85,66.85A66.93,66.93,0,0,0,149.62,0Z"/><path class="cls-1" d="M149.62,6.82a60,60,0,1,0,60,60A60,60,0,0,0,149.62,6.82Z"/><path class="cls-1" d="M66.82,150.12a60.06,60.06,0,1,1-30,8.06,60,60,0,0,1,30-8.06m0-6.81h0a66.86,66.86,0,1,0,58,33.43,66.9,66.9,0,0,0-57.95-33.43Z"/><path class="cls-1" d="M118.87,180.15a60,60,0,1,0-22,82A60,60,0,0,0,118.87,180.15Z"/><path class="cls-1" d="M149.62,197.9a60,60,0,0,1,0,120.06h0a60,60,0,1,1,0-120.06m0-6.82h0a66.85,66.85,0,1,0,66.85,66.85,66.93,66.93,0,0,0-66.85-66.85Z"/><path class="cls-1" d="M149.62,197.9a60,60,0,1,0,0,120.06h0a60,60,0,0,0,0-120.06Z"/><path class="cls-1" d="M232.42,150.12a60,60,0,1,1-52,30,59.81,59.81,0,0,1,52-30m0-6.82h0a67.09,67.09,0,0,0-57.95,33.44A66.87,66.87,0,0,0,232.31,277a67.1,67.1,0,0,0,57.95-33.44A66.87,66.87,0,0,0,232.42,143.3Z"/><path class="cls-1" d="M262.38,158.17a60,60,0,1,0,22,82A59.81,59.81,0,0,0,262.38,158.17Z"/><path class="cls-1" d="M232.31,54.58a60,60,0,1,1-30,8.05,60,60,0,0,1,30-8.05m0-6.82h0a66.85,66.85,0,1,0,57.95,33.43,66.91,66.91,0,0,0-57.95-33.43Z"/><path class="cls-1" d="M284.35,84.6a60.05,60.05,0,1,0-22,82A60,60,0,0,0,284.35,84.6Z"/><path class="cls-1" d="M149.62,114.56a47.83,47.83,0,1,1-47.83,47.83,47.83,47.83,0,0,1,47.83-47.83m0-6.81a54.65,54.65,0,1,0,54.65,54.64,54.7,54.7,0,0,0-54.65-54.64Z"/><path class="cls-1" d="M149.62,114.56a47.83,47.83,0,1,0,47.83,47.83A47.83,47.83,0,0,0,149.62,114.56Z"/></g></svg>