<svg id="SEAMLESS_HUNGARIAN_FOLK_ART_PATTERN_-_KALOCSAI_EMBROIDERY_STYLE" data-name="SEAMLESS HUNGARIAN FOLK ART PATTERN - KALOCSAI EMBROIDERY STYLE" xmlns="http://www.w3.org/2000/svg" viewBox="0 0 316.4 264.19"><defs><style>.cls-1{fill:#6698fa;}</style></defs><g id="flower"><path class="cls-1" d="M278.27,117a27.36,27.36,0,0,1,7.56.78,36.47,36.47,0,0,1-10.31,71.44h0a36.79,36.79,0,0,1-10.34-1.5c-3.68-1.09-9.15-2.52-15.49-4.18-24.43-6.4-75.26-19.71-81.35-30.51-.38-.67-.3-.93-.27-1,3.09-10.46,74.82-35,110.2-35m0-4.41c-16.55,0-42.18,5.15-68.58,13.79-16,5.23-43.19,15.35-45.85,24.37a5.55,5.55,0,0,0,.66,4.45c5.81,10.31,37.8,20.49,84,32.6,6,1.58,11.72,3.07,15.39,4.15a40.87,40.87,0,0,0,23.15-78.4,32.16,32.16,0,0,0-8.81-1Z"/><path class="cls-1" d="M285.83,117.76a27.36,27.36,0,0,0-7.56-.78c-35.38,0-107.11,24.54-110.2,35,0,.1-.11.36.27,1,6.09,10.8,56.92,24.11,81.35,30.51,6.34,1.66,11.81,3.09,15.49,4.18a36.79,36.79,0,0,0,10.34,1.5h0a36.47,36.47,0,0,0,10.31-71.44Z"/><path class="cls-1" d="M261.84,48.33H262a36.47,36.47,0,0,1,10.42,71.36c-3.67,1.12-9,2.93-15.25,5-22.45,7.6-60,20.29-78.1,20.29h-.19c-4.9,0-7-1.06-7.21-1.75-4-13,59.22-87.16,79.53-93.34a36.32,36.32,0,0,1,10.63-1.59m0-4.41a40.91,40.91,0,0,0-11.91,1.77c-12.15,3.7-34.28,25.92-50.94,45.48-13.15,15.43-34.72,42.88-31.53,53.38,1,3.2,4.81,4.84,11.41,4.87h.21c18.83,0,56.77-12.83,79.44-20.49,5.68-1.92,11.46-3.88,15.2-5a40.88,40.88,0,0,0-11.69-80Z"/><path class="cls-1" d="M296.71,74.19A36.28,36.28,0,0,0,262,48.33h-.17a36.32,36.32,0,0,0-10.63,1.59c-20.31,6.18-83.49,80.33-79.53,93.34.21.69,2.31,1.73,7.21,1.75h.19c18.13,0,55.65-12.69,78.1-20.29,6.21-2.1,11.58-3.91,15.25-5A36.51,36.51,0,0,0,296.71,74.19Z"/><path class="cls-1" d="M196.08,4.41a36.47,36.47,0,0,1,31.37,55c-1.95,3.31-4.67,8.27-7.82,14C208.89,93,180.36,145,169.6,145a.7.7,0,0,1-.4-.09C157.48,138,153.84,40.66,164.62,22.37a36.65,36.65,0,0,1,31.46-18m0-4.41a41.08,41.08,0,0,0-35.26,20.13c-6.44,10.93-7.71,42.27-6.75,67.94.75,20.26,3.43,55.07,12.89,60.65a5.16,5.16,0,0,0,2.64.7c9.63,0,24.74-20.71,53.9-73.88,3.13-5.71,5.84-10.65,7.76-13.9A40.89,40.89,0,0,0,196.08,0Z"/><path class="cls-1" d="M227.45,59.4a36.47,36.47,0,1,0-62.83-37C153.84,40.66,157.48,138,169.2,144.92a.7.7,0,0,0,.4.09c10.76,0,39.29-52,50-71.59C222.78,67.67,225.5,62.71,227.45,59.4Z"/><path class="cls-1" d="M38.13,117c35.37,0,107.11,24.54,110.2,35,0,.1.11.36-.27,1-6.1,10.8-56.93,24.11-81.35,30.51-6.34,1.66-11.81,3.09-15.5,4.18a36.67,36.67,0,0,1-10.33,1.5h0a36.47,36.47,0,0,1-10.31-71.44,27.46,27.46,0,0,1,7.57-.78m0-4.41a32.29,32.29,0,0,0-8.82,1A40.91,40.91,0,0,0,1.69,164.3a40.84,40.84,0,0,0,50.77,27.63c3.67-1.08,9.35-2.57,15.36-4.14,46.28-12.12,78.26-22.3,84.08-32.61a5.58,5.58,0,0,0,.65-4.49c-2.65-9-29.86-19.1-45.84-24.33-26.4-8.64-52-13.79-68.58-13.79Z"/><path class="cls-1" d="M148.06,153c.38-.67.3-.93.27-1-3.09-10.46-74.83-35-110.2-35a27.46,27.46,0,0,0-7.57.78A36.47,36.47,0,0,0,40.87,189.2h0a36.67,36.67,0,0,0,10.33-1.5c3.69-1.09,9.16-2.52,15.5-4.18C91.13,177.12,142,163.81,148.06,153Z"/><path class="cls-1" d="M54.56,48.33a36.37,36.37,0,0,1,10.63,1.59c20.31,6.18,83.49,80.33,79.52,93.34-.2.69-2.3,1.73-7.2,1.75h-.19c-18.13,0-55.66-12.69-78.11-20.29-6.21-2.1-11.57-3.91-15.24-5A36.47,36.47,0,0,1,54.38,48.33h.18m0-4.41h-.2a40.88,40.88,0,0,0-11.68,80c3.49,1.07,8.47,2.74,15.12,5,22.74,7.69,60.68,20.52,79.52,20.52h.2c6.61,0,10.45-1.67,11.42-4.88,3.19-10.49-18.38-37.94-31.53-53.37C100.75,71.61,78.62,49.39,66.47,45.69a41,41,0,0,0-11.91-1.77Z"/><path class="cls-1" d="M144.71,143.26c4-13-59.21-87.16-79.52-93.34a36.37,36.37,0,0,0-10.63-1.59h-.18A36.47,36.47,0,0,0,44,119.69c3.67,1.12,9,2.93,15.24,5,22.45,7.6,60,20.29,78.11,20.29h.19C142.41,145,144.51,144,144.71,143.26Z"/><path class="cls-1" d="M120.32,4.41a36.63,36.63,0,0,1,31.45,18c10.78,18.29,7.15,115.64-4.57,122.55a.72.72,0,0,1-.4.09c-10.77,0-39.29-52-50-71.59-3.15-5.75-5.87-10.71-7.81-14a36.47,36.47,0,0,1,31.37-55m0-4.41A40.91,40.91,0,0,0,85.14,61.64c1.94,3.28,4.76,8.44,7.76,13.9,29.16,53.17,44.27,73.88,53.9,73.88a5.13,5.13,0,0,0,2.62-.69c9.48-5.59,12.16-40.4,12.91-60.66,1-25.67-.31-57-6.75-67.94A41.08,41.08,0,0,0,120.32,0Z"/><path class="cls-1" d="M151.77,22.37A36.46,36.46,0,1,0,89,59.4c1.94,3.31,4.66,8.27,7.81,14C107.51,93,136,145,146.8,145a.72.72,0,0,0,.4-.09C158.92,138,162.55,40.66,151.77,22.37Z"/><path class="cls-1" d="M158.2,93.89a44.59,44.59,0,0,1,44.59,44.59c0,24.63-25.9,121.3-44.59,121.3s-44.59-96.67-44.59-121.3A44.59,44.59,0,0,1,158.2,93.89m0-4.41a49.05,49.05,0,0,0-49,49c0,13.07,6.8,44.36,15.5,71.24,17.61,54.47,29.57,54.47,33.5,54.47s15.89,0,33.5-54.47c8.69-26.88,15.5-58.17,15.5-71.24a49.05,49.05,0,0,0-49-49Z"/><path class="cls-1" d="M158.2,93.89a44.59,44.59,0,0,0-44.59,44.59c0,24.63,25.9,121.3,44.59,121.3s44.59-96.67,44.59-121.3A44.59,44.59,0,0,0,158.2,93.89Z"/></g></svg>