<svg id="SEAMLESS_HUNGARIAN_FOLK_ART_PATTERN_-_KALOCSAI_EMBROIDERY_STYLE" data-name="SEAMLESS HUNGARIAN FOLK ART PATTERN - KALOCSAI EMBROIDERY STYLE" xmlns="http://www.w3.org/2000/svg" viewBox="0 0 538.55 438.79"><defs><style>.cls-1{fill:#0d6e23;}</style></defs><g id="flower"><path class="cls-1" d="M269.06,264.47c24.56,0,44.48,23.23,44.48,51.9s-19.92,83-44.48,83-44.48-54.3-44.48-83,19.91-51.9,44.48-51.9m0-4.41c-27,0-48.9,25.26-48.9,56.31,0,29.91,20.65,87.37,48.9,87.37S318,346.28,318,316.37c0-31.05-21.93-56.31-48.89-56.31Z"/><path class="cls-1" d="M269.06,264.47c-24.57,0-44.48,23.23-44.48,51.9s19.91,83,44.48,83,44.48-54.3,44.48-83S293.62,264.47,269.06,264.47Z"/><g id="flower-2" data-name="flower"><path class="cls-1" d="M264.83,293h0m0,0c-36.14,104.8-91.51,141.37-136.33,141.37-60.4,0-101.61-66.45-50.61-121.84,3.47-3.77,6.58-5.21,10-5.21,10.79,0,24.38,14.67,61.92,14.67,25.31,0,61.51-6.67,115.07-29m0-4.41h-.3A4.35,4.35,0,0,0,263,289c-45.58,19-83.69,28.61-113.28,28.61-23.52,0-37.06-5.89-46.94-10.19-5.75-2.51-10.29-4.48-15-4.48s-9,2.1-13.2,6.63c-23.77,25.83-30.47,56.45-18.38,84s40.4,45.21,72.24,45.21c25.74,0,51.47-11.26,74.42-32.56,26.83-24.9,49-62.43,66-111.54a4.49,4.49,0,0,0,.33-1.68,4.41,4.41,0,0,0-4.39-4.41Z"/><path class="cls-1" d="M128.5,434.38c44.82,0,100.19-36.57,136.33-141.37-53.56,22.32-89.76,29-115.07,29-37.54,0-51.13-14.67-61.92-14.67-3.37,0-6.48,1.44-10,5.21C26.89,367.93,68.1,434.38,128.5,434.38Z"/><path class="cls-1" d="M90.13,156.49c54.14,0,12.06,80.06,192.2,125.5C213.84,318,159.25,332.06,117.22,332.06c-135.31,0-140.44-145.39-60.07-169.47,14.05-4.21,24.65-6.1,33-6.1m0-4.41c-8.92,0-20.12,2.06-34.25,6.29C17.83,169.76-5.24,209.06,1,251.81a93.33,93.33,0,0,0,33.27,58.7c20.72,17,49.4,26,82.93,26,47.15,0,103.4-17,167.17-50.57a4.41,4.41,0,0,0-1-8.18c-111.12-28-136-68.94-152.53-96-10.09-16.55-18.06-29.63-40.75-29.63Z"/><path class="cls-1" d="M117.22,332.06c42,0,96.62-14,165.11-50.07-180.14-45.44-138.06-125.5-192.2-125.5-8.33,0-18.93,1.89-33,6.1C-23.22,186.67-18.09,332.06,117.22,332.06Z"/><path class="cls-1" d="M173.79,4.41c29.66,0,59.9,18.47,81.36,65.18,68,148.13-189.24,33.34,25.19,193.53C-25.89,228.49,70.45,4.41,173.79,4.41m0-4.41C149,0,123.31,12.39,103.21,34s-32.4,50-34,78.15c-1.43,25.35,5,62.52,43.48,95.64C149,239,205.2,259.07,279.84,267.51a4.19,4.19,0,0,0,.5,0,4.42,4.42,0,0,0,2.64-8c-21.81-16.29-88.17-65.87-85.32-82.86,1-5.75,11.79-9.22,23.26-12.89,17-5.46,38.24-12.25,46.76-31.58,6.95-15.78,4.17-36.88-8.52-64.51C239.09,24.06,208.77,0,173.79,0Z"/><path class="cls-1" d="M280.34,263.12c-214.43-160.19,42.83-45.4-25.19-193.53-21.46-46.71-51.7-65.18-81.36-65.18C70.45,4.41-25.89,228.49,280.34,263.12Z"/><path class="cls-1" d="M273.73,293c53.55,22.32,89.74,29,115,29,37.54,0,51.13-14.67,61.91-14.67,3.38,0,6.48,1.44,9.95,5.21,51,55.39,9.8,121.84-50.6,121.84-44.81,0-100.18-36.57-136.31-141.37m0-4.41a4.41,4.41,0,0,0-4.17,5.85c17,49.23,39.2,86.84,66.07,111.78,22.95,21.3,48.68,32.56,74.41,32.56,31.84,0,60.19-17.75,72.23-45.2s5.4-58.21-18.38-84c-4.17-4.52-8.36-6.63-13.2-6.63-4.68,0-9.22,2-15,4.48-9.88,4.3-23.42,10.19-46.94,10.19-29.61,0-67.75-9.64-113.36-28.65a4.32,4.32,0,0,0-1.69-.34Z"/><path class="cls-1" d="M450.69,307.33c-10.78,0-24.37,14.67-61.91,14.67-25.31,0-61.5-6.67-115-29,36.13,104.8,91.5,141.37,136.31,141.37,60.4,0,101.6-66.45,50.6-121.84C457.17,308.77,454.07,307.33,450.69,307.33Z"/><path class="cls-1" d="M448.41,156.49c8.33,0,18.93,1.89,33,6.1,80.39,24.08,75.27,169.47-60.06,169.47-42,0-96.63-14-165.13-50.07,180.16-45.44,138.09-125.48,192.22-125.5m0-4.41h0c-22.69,0-30.65,13.08-40.74,29.63-16.49,27.07-41.41,68-152.55,96a4.41,4.41,0,0,0-1,8.18c63.78,33.56,120,50.57,167.18,50.57,33.53,0,62.21-9,82.93-26a93.3,93.3,0,0,0,33.28-58.7c6.26-42.75-16.82-82.05-54.88-93.44-14.12-4.23-25.32-6.29-34.23-6.29Z"/><path class="cls-1" d="M481.38,162.59c-14-4.21-24.64-6.1-33-6.1-54.13,0-12.06,80.06-192.22,125.5,68.5,36.05,123.09,50.07,165.13,50.07C556.65,332.06,561.77,186.67,481.38,162.59Z"/><path class="cls-1" d="M365.07,4.41c103.33,0,199.68,224.08-106.56,258.71,214.43-160.19-42.84-45.4,25.2-193.53,21.45-46.71,51.7-65.18,81.36-65.18m0-4.41V0c-35,0-65.31,24.07-85.37,67.75-12.69,27.63-15.48,48.73-8.52,64.51,8.51,19.33,29.71,26.12,46.75,31.58,11.47,3.67,22.3,7.14,23.26,12.89,2.85,17-63.51,66.57-85.32,82.86a4.42,4.42,0,0,0,2.64,8l.5,0c74.64-8.44,130.87-28.53,167.14-59.72,38.53-33.11,44.91-70.28,43.48-95.64-1.58-28.15-14-56.63-34-78.15S389.82,0,365.08,0Z"/><path class="cls-1" d="M365.07,4.41c-29.66,0-59.91,18.47-81.36,65.18-68,148.13,189.23,33.34-25.2,193.53C564.75,228.49,468.4,4.4,365.07,4.41Z"/><polygon class="cls-1" points="365.07 4.41 365.07 2.21 365.07 2.21 365.07 4.41"/><path class="cls-1" d="M269.26,108.15c54.85,0,99.31,45.25,99.31,101.07s-44.46,101.07-99.31,101.07S170,265,170,209.22s44.45-101.07,99.28-101.07m0-4.41c-57.18,0-103.7,47.32-103.7,105.48S212.08,314.7,269.26,314.7,373,267.38,373,209.22,326.45,103.74,269.26,103.74Z"/><path class="cls-1" d="M269.26,108.15c-54.83,0-99.28,45.25-99.28,101.07s44.45,101.07,99.28,101.07S368.57,265,368.57,209.22,324.11,108.15,269.26,108.15Z"/><path class="cls-1" d="M269.26,168.41c29.24,0,53,24.13,53,53.88s-23.72,53.91-53,53.91-52.94-24.13-52.94-53.91,23.71-53.88,52.94-53.88m0-4.41c-31.62,0-57.35,26.15-57.35,58.29s25.73,58.32,57.35,58.32,57.37-26.16,57.37-58.32S300.9,164,269.26,164Z"/><path class="cls-1" d="M269.26,168.41c-29.23,0-52.94,24.13-52.94,53.88S240,276.2,269.26,276.2s53-24.13,53-53.91S298.5,168.41,269.26,168.41Z"/><path class="cls-1" d="M183,190.58c44.43,0,96.76,50.46,84.22,119.71C213.5,310.29,170,265,170,209.22a104.31,104.31,0,0,1,1.46-16.89,29.73,29.73,0,0,1,8.81-1.68c.9-.05,1.8-.07,2.7-.07m0-4.41c-1,0-1.94,0-2.9.07a34.5,34.5,0,0,0-10.11,1.94,4.41,4.41,0,0,0-2.85,3.43,107.46,107.46,0,0,0-1.53,17.61c0,58.16,45.58,105.48,101.61,105.48a4.41,4.41,0,0,0,4.34-3.62c6.09-33.64-2.06-65.95-23-91-17.74-21.24-42.27-33.93-65.6-33.93Z"/><path class="cls-1" d="M183,190.58c-.9,0-1.8,0-2.7.07a29.73,29.73,0,0,0-8.81,1.68A104.31,104.31,0,0,0,170,209.22c0,55.82,43.52,101.07,97.19,101.07C279.71,241,227.38,190.58,183,190.58Z"/><path class="cls-1" d="M355.17,190.58c.9,0,1.8,0,2.7.07a29.73,29.73,0,0,1,8.81,1.68,105.45,105.45,0,0,1,1.46,16.89c0,55.82-43.52,101.07-97.19,101.07C258.4,241,310.74,190.59,355.17,190.58m0-4.41h0c-23.34,0-47.86,12.69-65.61,33.94-20.89,25-29.05,57.33-22.95,91A4.41,4.41,0,0,0,271,314.7c56,0,101.6-47.32,101.6-105.48a108.5,108.5,0,0,0-1.52-17.6,4.39,4.39,0,0,0-2.86-3.44,34.37,34.37,0,0,0-10.1-1.94c-1,0-1.93-.07-2.9-.07Z"/><path class="cls-1" d="M366.68,192.33a29.73,29.73,0,0,0-8.81-1.68c-.9-.05-1.8-.07-2.7-.07-44.43,0-96.77,50.46-84.22,119.71,53.67,0,97.19-45.25,97.19-101.07A105.45,105.45,0,0,0,366.68,192.33Z"/></g></g></svg>