<svg id="SEAMLESS_HUNGARIAN_FOLK_ART_PATTERN_-_KALOCSAI_EMBROIDERY_STYLE" data-name="SEAMLESS HUNGARIAN FOLK ART PATTERN - KALOCSAI EMBROIDERY STYLE" xmlns="http://www.w3.org/2000/svg" viewBox="0 0 520.65 417.62"><defs><style>.cls-1{fill:#e02013;}</style></defs><path class="cls-1" d="M119,353.46c-16.2,11.56-20.46,34-10,49.57,6,10,17,14.59,30.46,14.59,43.64,0,112.77-49.31,119.5-126C189.84,357.11,146.19,334.1,119,353.46Z"/><path class="cls-1" d="M193.84,290.69C126.58,290.69,98.08,263,65.61,263c-1.27,0-2.56,0-3.84.13C36,264.88,16.34,287,17.76,311.58c.3,30.93,37.78,50,85.21,50,52.07,0,116.11-23,156.07-78.3C233.78,288.59,212.35,290.69,193.84,290.69Z"/><path class="cls-1" d="M79.46,124.07A62.09,62.09,0,0,0,49.17,116c-18.3,0-35.71,8.78-44.87,27.16-22.42,44.93,44.42,153.74,163.78,153.74,26.76,0,56.17-5.47,87.8-18.36C104.84,235.65,123.9,149.12,79.46,124.07Z"/><path class="cls-1" d="M90.59,84.4C77.44,142.92,106.77,233.31,259,288.81,123.37,172.6,205.65,107.7,205.65,49.12c0-26-20-49.12-45.12-49.12Q159,0,157.44.12C113.73,3.38,94.31,67.87,90.59,84.4Z"/><path class="cls-1" d="M401.63,353.46c-27.16-19.36-70.82,3.65-140-61.8,6.73,76.65,75.86,126,119.5,126,13.41,0,24.41-4.64,30.46-14.59C422.08,387.5,417.82,365,401.63,353.46Z"/><path class="cls-1" d="M458.88,263.1c-1.29-.09-2.57-.13-3.84-.13-32.47,0-61,27.72-128.24,27.72-18.5,0-39.93-2.1-65.19-7.45,40,55.35,104,78.3,156.07,78.3,47.43,0,84.92-19,85.22-50C504.31,287,484.63,264.88,458.88,263.1Z"/><path class="cls-1" d="M516.35,143.12C507.19,124.74,489.78,116,471.49,116a62.07,62.07,0,0,0-30.29,8.11c-44.44,25.05-25.39,111.58-176.43,154.43,31.63,12.89,61,18.36,87.8,18.36C471.93,296.86,538.77,188.05,516.35,143.12Z"/><path class="cls-1" d="M430.06,84.4c-3.71-16.53-23.13-81-66.85-84.28-1-.08-2.06-.12-3.08-.12C335,0,315,23.11,315,49.12c0,58.58,82.28,123.48-53.39,239.69C413.88,233.31,443.21,142.92,430.06,84.4Z"/><path class="cls-1" d="M260.32,168.07c28.82,0,52.19,23.78,52.19,53.12s-23.37,53.11-52.19,53.11-52.17-23.77-52.17-53.11,23.36-53.12,52.17-53.12m0-3.49c-30.7,0-55.67,25.39-55.67,56.61s25,56.61,55.67,56.61S316,252.4,316,221.19s-25-56.61-55.68-56.61Z"/><path class="cls-1" d="M260.83,94.38c-53.92,0-97.64,45.37-97.64,101.33s43.72,101.34,97.64,101.34,97.66-45.38,97.66-101.34S314.76,94.38,260.83,94.38Z"/><path class="cls-1" d="M253.1,176.92l-11-46.06a3.54,3.54,0,0,0-3.44-2.72,3.29,3.29,0,0,0-.82.1,3.54,3.54,0,0,0-2.62,4.26l11,46.07a3.54,3.54,0,0,0,3.44,2.71,4,4,0,0,0,.83-.09A3.54,3.54,0,0,0,253.1,176.92Z"/><path class="cls-1" d="M202.9,153a3.54,3.54,0,0,1,2.87,1.46l23.58,32.62a3.54,3.54,0,1,1-5.74,4.14L200,158.6a3.54,3.54,0,0,1,.8-4.94,3.46,3.46,0,0,1,2.07-.67"/><path class="cls-1" d="M205.77,154.45A3.54,3.54,0,0,0,202.9,153a3.46,3.46,0,0,0-2.07.67,3.54,3.54,0,0,0-.8,4.94l23.58,32.61a3.54,3.54,0,0,0,5.74-4.14Z"/><path class="cls-1" d="M204.47,140.81a15.72,15.72,0,1,0,15.72,15.71A15.71,15.71,0,0,0,204.47,140.81Z"/><path class="cls-1" d="M238.66,116a15.72,15.72,0,1,0,15.72,15.72A15.71,15.71,0,0,0,238.66,116Z"/><path class="cls-1" d="M282.32,128.24a3.29,3.29,0,0,0-.82-.1,3.53,3.53,0,0,0-3.44,2.72l-11,46.06a3.55,3.55,0,0,0,2.62,4.27,3.91,3.91,0,0,0,.83.09,3.52,3.52,0,0,0,3.43-2.71l11-46.07A3.54,3.54,0,0,0,282.32,128.24Z"/><path class="cls-1" d="M319.33,153.66a3.48,3.48,0,0,0-2.07-.67,3.54,3.54,0,0,0-2.87,1.46l-23.58,32.62a3.53,3.53,0,1,0,5.73,4.14l23.58-32.61A3.53,3.53,0,0,0,319.33,153.66Z"/><path class="cls-1" d="M315.68,140.81a15.72,15.72,0,1,0,15.72,15.71A15.71,15.71,0,0,0,315.68,140.81Z"/><path class="cls-1" d="M281.5,116a15.72,15.72,0,1,0,15.71,15.72A15.72,15.72,0,0,0,281.5,116Z"/><path class="cls-1" d="M260.33,168.07c-28.82,0-52.18,23.78-52.18,53.12s23.36,53.11,52.18,53.11,52.18-23.77,52.18-53.11S289.14,168.07,260.33,168.07Z"/><path class="cls-1" d="M356.53,183.1a30,30,0,0,0-8.69-1.65c-.89,0-1.77-.06-2.66-.06-43.79,0-95.35,49.74-83,118,52.89,0,95.78-44.59,95.78-99.61A103.8,103.8,0,0,0,356.53,183.1Z"/><polygon class="cls-1" points="345.18 181.39 345.18 179.64 345.18 179.64 345.18 181.39"/><path class="cls-1" d="M175.47,181.39c-.89,0-1.77,0-2.66.06a29.9,29.9,0,0,0-8.68,1.65,102.67,102.67,0,0,0-1.45,16.65c0,55,42.89,99.61,95.79,99.61C270.82,231.13,219.26,181.39,175.47,181.39Z"/><path class="cls-1" d="M260.33,258.38c-13.25,0-24,11-24,24.54s10.72,24.54,24,24.54,24-11,24-24.54S273.56,258.38,260.33,258.38Z"/><path class="cls-1" d="M284.29,295.42c-13.23,0-24,11-24,24.54s10.73,24.54,24,24.54,24-11,24-24.54S297.54,295.42,284.29,295.42Z"/><path class="cls-1" d="M236.36,295.42c-13.24,0-24,11-24,24.54s10.73,24.54,24,24.54,24-11,24-24.54S249.6,295.42,236.36,295.42Z"/></svg>