<svg id="SEAMLESS_HUNGARIAN_FOLK_ART_PATTERN_-_KALOCSAI_EMBROIDERY_STYLE" data-name="SEAMLESS HUNGARIAN FOLK ART PATTERN - KALOCSAI EMBROIDERY STYLE" xmlns="http://www.w3.org/2000/svg" viewBox="0 0 549.64 493.57"><defs><style>.cls-1{fill:#ee3630;}</style></defs><g id="flower"><path class="cls-1" d="M444.71,181.26c41.17,0,79.29,15,100.52,59a47,47,0,0,0-6.42-.45c-66.9,0-17.58,159.42-178.29,159.42-23.66,0-51.87-3.46-85.66-11.38h0c.1,0,.05,0,0,0s-.1,0,0,0h0c-33.81,7.93-62,11.38-85.65,11.38-160.69,0-111.38-159.42-178.3-159.42a47,47,0,0,0-6.42.45c21.24-44,59.35-59,100.52-59,67.53,0,143.28,40.32,166.28,59h7.22c23-18.69,98.75-59,166.28-59m0-4.42c-66.25,0-141,37.88-167.83,59h-4.12c-26.87-21.14-101.58-59-167.83-59-49.65,0-84.8,20.7-104.49,61.51a4.41,4.41,0,0,0,4,6.33,3.9,3.9,0,0,0,.59,0,44.25,44.25,0,0,1,5.83-.41c23.09,0,30.82,22.66,40.61,51.35C67,341.19,88.31,403.65,189.13,403.65c24.72,0,53.55-3.79,85.69-11.27,32.13,7.48,61,11.27,85.7,11.27,100.84,0,122.14-62.47,137.7-108.08,9.79-28.68,17.51-51.34,40.59-51.34a44.25,44.25,0,0,1,5.83.41,4,4,0,0,0,.59,0,4.41,4.41,0,0,0,4-6.33c-19.68-40.81-54.84-61.51-104.49-61.51Z"/><path class="cls-1" d="M274.82,387.81c.05,0,.1,0,0,0h0c33.79,7.92,62,11.38,85.66,11.38,160.71,0,111.39-159.42,178.29-159.42a47,47,0,0,1,6.42.45c-21.23-44-59.35-59-100.52-59-67.53,0-143.28,40.32-166.28,59h-7.22c-23-18.69-98.75-59-166.28-59-41.17,0-79.28,15-100.52,59a47,47,0,0,1,6.42-.45c66.92,0,17.61,159.42,178.3,159.42,23.66,0,51.84-3.45,85.65-11.38h0C274.72,387.82,274.77,387.81,274.82,387.81Z"/><path class="cls-1" d="M274.78,34.6a2.21,2.21,0,0,0-2.21,2.21V94.36a2.21,2.21,0,1,0,4.42,0V36.81A2.21,2.21,0,0,0,274.78,34.6Z"/><path class="cls-1" d="M234,35.79a2.21,2.21,0,0,0-3.91,2.05l30.11,57.55a2.2,2.2,0,0,0,2,1.18,2.2,2.2,0,0,0,1.95-3.23Z"/><path class="cls-1" d="M318.56,34.86a2.22,2.22,0,0,0-3,.93l-30.1,57.55a2.21,2.21,0,0,0,3.91,2l30.1-57.55A2.2,2.2,0,0,0,318.56,34.86Z"/><path class="cls-1" d="M232,20.62a16.2,16.2,0,1,1-16.2,16.2A16.19,16.19,0,0,1,232,20.62m0-4.41a20.61,20.61,0,1,0,20.6,20.61A20.63,20.63,0,0,0,232,16.21Z"/><path class="cls-1" d="M232,20.62a16.2,16.2,0,1,0,16.19,16.2A16.19,16.19,0,0,0,232,20.62Z"/><path class="cls-1" d="M317.53,20.62a16.2,16.2,0,1,1-16.2,16.2,16.2,16.2,0,0,1,16.2-16.2m0-4.41a20.61,20.61,0,1,0,20.61,20.61,20.63,20.63,0,0,0-20.61-20.61Z"/><ellipse class="cls-1" cx="317.53" cy="36.82" rx="16.2" ry="16.19" transform="translate(-0.08 0.67) rotate(-0.12)"/><path class="cls-1" d="M274.78,4.41a16.2,16.2,0,1,1-16.2,16.2,16.2,16.2,0,0,1,16.2-16.2m0-4.41A20.61,20.61,0,1,0,295.4,20.61,20.63,20.63,0,0,0,274.78,0Z"/><path class="cls-1" d="M274.78,4.41A16.2,16.2,0,1,0,291,20.61,16.2,16.2,0,0,0,274.78,4.41Z"/><path class="cls-1" d="M412.32,104.19c28.55,0,58.62,7.66,88.24,26.62-111.36,37.56,107.34,254.32-225.7,257h-.16s0,0,0,0C-34.66,347.25,160.37,168.37,49,130.81c29.62-19,59.68-26.63,88.23-26.62,57.34,0,108.54,30.92,137.54,63.36,29-32.44,80.21-63.36,137.54-63.36M274.78,387.27c.8-2.42,5.44-11.71,4.89-11.8h-9.78c-.54.09,4.06,9.38,4.89,11.8M412.32,99.78c-58.77,0-108.86,31-137.54,61.26C246.12,130.78,196,99.78,137.24,99.78h0c-31.8,0-62.28,9.19-90.6,27.32a4.42,4.42,0,0,0,1,7.9C86.33,148.06,85,179,83.36,218.07c-1.39,32.88-3,70.16,20.9,102.5,27.09,36.71,82.52,60.13,169.44,71.59a4.71,4.71,0,0,0,1,.11h.43c89.48-.76,147.13-16.95,176.21-49.5,29.66-33.19,25-77.68,20.9-116.93-4.56-43.61-8.17-78.06,29.73-90.83a4.42,4.42,0,0,0,1-7.9C474.62,109,444.13,99.78,412.32,99.78Z"/><path class="cls-1" d="M412.32,104.19c-57.33,0-108.53,30.92-137.54,63.36-29-32.44-80.2-63.36-137.54-63.36-28.55,0-58.61,7.66-88.23,26.62,111.36,37.56-83.67,216.44,225.68,257,0,0,0,0,0,0h.16c333-2.72,114.34-219.48,225.7-257C470.94,111.85,440.87,104.19,412.32,104.19ZM274.78,387.27c-.83-2.42-5.43-11.71-4.89-11.8h9.78C280.22,375.56,275.58,384.85,274.78,387.27Z"/><path class="cls-1" d="M395.18,50.25c18.76,0,39.6,4.65,62.54,16-157,30.42,87.56,265.64-181.29,320.93a5.4,5.4,0,0,1-.05.69h0c-.47-.13-.9-.27-1.36-.39-.63.12-1.21.27-1.83.39h0a5.92,5.92,0,0,1-.06-.93C17.4,315.72,248.83,96.63,91.85,66.22c22.94-11.32,43.77-16,62.54-16,62.77,0,102.37,52.07,120.39,80.32,18-28.25,57.61-80.32,120.4-80.32m0-4.41c-45.15,0-86.67,26.48-120.4,76.68-33.72-50.2-75.24-76.68-120.39-76.68-20.71,0-42.41,5.52-64.5,16.43A4.41,4.41,0,0,0,91,70.56c64.76,12.54,59.46,58,52.75,115.46-8.48,72.75-19,163.21,126,204.51a4.23,4.23,0,0,0,3.47,1.72,4.58,4.58,0,0,0,.83-.08l.84-.17.37.1a4.48,4.48,0,0,0,1.15.15,4.57,4.57,0,0,0,3-1.22c68.28-14.42,109.77-41.87,126.81-83.87,15-36.94,8.88-80.05,3.49-118.09-8.4-59.31-15-106.14,48.84-118.51a4.41,4.41,0,0,0,1.11-8.29c-22.09-10.91-43.79-16.43-64.49-16.43Z"/><path class="cls-1" d="M395.18,50.25c-62.79,0-102.37,52.07-120.4,80.32-18-28.25-57.62-80.32-120.39-80.32-18.77,0-39.6,4.65-62.54,16,157,30.41-74.45,249.5,181.28,320.69a5.92,5.92,0,0,0,.06.93c.62-.12,1.2-.27,1.83-.39.46.12.89.26,1.36.39a5.4,5.4,0,0,0,.05-.69C545.28,331.86,300.7,96.64,457.72,66.22,434.78,54.9,413.94,50.25,395.18,50.25Z"/><path class="cls-1" d="M274.78,92.68c144.73,0,0,295.18,0,295.18s-144.72-295.18,0-295.18m0-4.41c-26,0-45,9.23-56.36,27.43-45.37,72.79,48.39,265.92,52.4,274.1a4.42,4.42,0,0,0,7.93,0c4-8.18,97.77-201.32,52.39-274.1-11.35-18.2-30.31-27.43-56.36-27.43Z"/><path class="cls-1" d="M274.78,92.68c-144.72,0,0,295.18,0,295.18S419.51,92.68,274.78,92.68Z"/><path class="cls-1" d="M274.82,352c24.88,0,45.05,16.51,45.05,36.87S293.7,489.16,274.82,489.16s-45-79.93-45-100.28,20.17-36.87,45-36.87m0-4.41c-27.27,0-49.46,18.52-49.46,41.28,0,11.14,6.77,36.67,15.75,59.39,11.88,30.06,23.22,45.3,33.71,45.3s21.83-15.24,33.71-45.3c9-22.72,15.75-48.25,15.75-59.39,0-22.76-22.18-41.28-49.46-41.28Z"/><path class="cls-1" d="M274.82,352c-24.88,0-45,16.51-45,36.87s26.17,100.28,45,100.28,45.05-79.93,45.05-100.28S299.7,352,274.82,352Z"/></g></svg>